<?xml version="1.0" encoding="iso-8859-1"?>
<!-- Generator: Adobe Illustrator 19.0.0, SVG Export Plug-In . SVG Version: 6.00 Build 0)  -->
<svg version="1.1" id="Layer_1" xmlns="http://www.w3.org/2000/svg" xmlns:xlink="http://www.w3.org/1999/xlink" x="0px" y="0px"
	 viewBox="0 0 480 480" style="enable-background:new 0 0 480 480;" xml:space="preserve">
<rect x="368" y="144" style="fill:#E65039;" width="48" height="240"/>
<polygon style="fill:#BD8931;" points="392,472 368,416 416,416 "/>
<g>
	<rect x="368" y="112" style="fill:#FCB641;" width="48" height="32"/>
	<rect x="376" y="64" style="fill:#FCB641;" width="32" height="48"/>
</g>
<rect x="376" y="64" style="fill:#FDC567;" width="32" height="16"/>
<circle style="fill:#E65039;" cx="456" cy="240" r="16"/>
<g>
	<rect x="368" y="384" style="fill:#FCB641;" width="48" height="32"/>
	<rect x="368" y="248" style="fill:#FCB641;" width="48" height="32"/>
</g>
<path style="fill:#132C47;" d="M464,217.472V128c0-4.416-3.584-8-8-8h-32v-8c0-4.416-3.584-8-8-8V64c0-4.416-3.584-8-8-8h-32
	c-4.416,0-8,3.584-8,8v40c-4.416,0-8,3.584-8,8v32v104v32v104v32c0,0.112,0.064,0.208,0.064,0.328
	c0.04,0.912-0.136,1.824,0.224,2.688c0.016,0.04-0.288,0.08-0.288,0.12c0,0.008,0,0.008,0,0.016l24.328,56
	c1.256,2.944,4.312,4.848,7.512,4.848s6.496-1.904,7.76-4.848l24.408-56c0-0.008,0-0.008,0-0.016c0-0.04-0.304-0.08-0.288-0.12
	c0.352-0.872,0.344-1.776,0.384-2.688c-0.008-0.12-0.104-0.216-0.104-0.328v-32V280v-32V144v-8h24v81.472
	c-9.288,3.312-16,12.112-16,22.528c0,13.232,10.768,24,24,24s24-10.768,24-24C480,229.584,473.288,220.784,464,217.472z M408,240
	h-32v-24h8c4.416,0,8-3.584,8-8s-3.584-8-8-8h-8v-16h8c4.416,0,8-3.584,8-8s-3.584-8-8-8h-8v-16h32V240z M376,288h32v88h-32V288z
	 M408,272h-32v-16h32V272z M376,392h32v16h-32V392z M376,136v-16h32v16H376z M384,72h16v32h-16V72z M392,451.688L380.136,424h23.736
	L392,451.688z M456,248c-4.408,0-8-3.592-8-8s3.592-8,8-8s8,3.592,8,8C464,244.408,460.408,248,456,248z"/>
<g>
	<path style="fill:#AFCEE6;" d="M240,64h48c17.68,0,32,14.32,32,32v16"/>
	<path style="fill:#AFCEE6;" d="M320,96c0-17.672-14.328-32-32-32H40C22.328,64,8,78.328,8,96v344c0,17.672,14.328,32,32,32h248
		c17.672,0,32-14.328,32-32V96z"/>
</g>
<g>
	<path style="fill:#132C47;" d="M320,120c-4.416,0-8-3.584-8-8V96c0-13.232-10.768-24-24-24h-48c-4.416,0-8-3.584-8-8s3.584-8,8-8
		h48c22.056,0,40,17.944,40,40v16C328,116.416,324.416,120,320,120z"/>
	<path style="fill:#132C47;" d="M288,480H40c-22.056,0-40-17.944-40-40V96c0-22.056,17.944-40,40-40h248c22.056,0,40,17.944,40,40
		v344C328,462.056,310.056,480,288,480z M40,72c-13.232,0-24,10.768-24,24v344c0,13.232,10.768,24,24,24h248
		c13.232,0,24-10.768,24-24V96c0-13.232-10.768-24-24-24H40z"/>
</g>
<g>
	<path style="fill:#3684C1;" d="M272,80v24H56V80c0-8.8,7.2-16,16-16h16l12.72-44.4c1.92-6.88,8.24-11.6,15.36-11.6h95.84
		c7.12,0,13.44,4.72,15.36,11.6L240,64h16C264.8,64,272,71.2,272,80z"/>
	<path style="fill:#3684C1;" d="M240,64l-12.72-44.4C225.36,12.72,219.04,8,211.92,8h-95.84c-7.12,0-13.44,4.72-15.36,11.6L88,64H72
		c-8.8,0-16,7.2-16,16v24h216V80c0-8.8-7.2-16-16-16H240z"/>
</g>
<path style="fill:#5E9DCD;" d="M256,64h-16l-12.72-44.4C225.36,12.72,219.04,8,211.92,8h-95.84c-7.12,0-13.44,4.72-15.36,11.6L88,64
	H72c-8.8,0-16,7.2-16,16v16c0-8.8,7.2-16,16-16h16l12.72-44.4c1.92-6.88,8.24-11.6,15.36-11.6h95.84c7.12,0,13.44,4.72,15.36,11.6
	L240,80h16c8.8,0,16,7.2,16,16V80C272,71.2,264.8,64,256,64z"/>
<path style="fill:#132C47;" d="M272,112H56c-4.416,0-8-3.584-8-8V80c0-13.232,10.768-24,24-24h9.968l11.056-38.6
	C95.88,7.176,105.368,0,116.08,0h95.84c10.712,0,20.192,7.176,23.064,17.448L246.032,56H256c13.232,0,24,10.768,24,24v24
	C280,108.416,276.416,112,272,112z M64,96h200V80c0-4.408-3.592-8-8-8h-16c-3.568,0-6.704-2.36-7.688-5.8l-12.72-44.4
	c-0.96-3.432-4.104-5.8-7.672-5.8h-95.84c-3.56,0-6.704,2.368-7.656,5.752L95.688,66.2C94.704,69.64,91.568,72,88,72H72
	c-4.408,0-8,3.592-8,8V96z"/>
<path style="fill:#F7FAFD;" d="M181.6,52.16c0,9.12-7.36,16.48-16.56,16.48c-9.12,0-16.48-7.36-16.48-16.48
	c0-9.2,7.36-16.56,16.48-16.56C174.24,35.6,181.6,42.96,181.6,52.16z"/>
<path style="fill:#132C47;" d="M165.04,76.64c-13.504,0-24.48-10.984-24.48-24.48c0-13.544,10.984-24.56,24.48-24.56
	c13.544,0,24.56,11.016,24.56,24.56C189.6,65.664,178.584,76.64,165.04,76.64z M165.04,43.6c-4.752,0-8.48,3.76-8.48,8.56
	c0,4.672,3.808,8.48,8.48,8.48c4.8,0,8.56-3.728,8.56-8.48C173.6,47.36,169.84,43.6,165.04,43.6z"/>
<rect x="40" y="104" style="fill:#F7FAFD;" width="248" height="328"/>
<g>
	<path style="fill:#132C47;" d="M288,440H40c-4.416,0-8-3.584-8-8V104c0-4.416,3.584-8,8-8h248c4.416,0,8,3.584,8,8v328
		C296,436.416,292.416,440,288,440z M48,424h232V112H48V424z"/>
	<path style="fill:#132C47;" d="M208,160h-64c-4.416,0-8-3.584-8-8s3.584-8,8-8h64c4.416,0,8,3.584,8,8S212.416,160,208,160z"/>
	<path style="fill:#132C47;" d="M256,160h-16c-4.416,0-8-3.584-8-8s3.584-8,8-8h16c4.416,0,8,3.584,8,8S260.416,160,256,160z"/>
	<path style="fill:#132C47;" d="M256,200h-64c-4.416,0-8-3.584-8-8s3.584-8,8-8h64c4.416,0,8,3.584,8,8S260.416,200,256,200z"/>
	<path style="fill:#132C47;" d="M160,200h-16c-4.416,0-8-3.584-8-8s3.584-8,8-8h16c4.416,0,8,3.584,8,8S164.416,200,160,200z"/>
	<path style="fill:#132C47;" d="M88,200c-2.112,0-4.152-0.832-5.656-2.344l-16-16c-3.128-3.128-3.128-8.184,0-11.312
		s8.184-3.128,11.312,0l8.752,8.752l18.728-31.216c2.272-3.792,7.184-5.016,10.976-2.744c3.792,2.272,5.016,7.184,2.744,10.976
		l-24,40c-1.264,2.112-3.44,3.52-5.88,3.824C88.656,199.984,88.328,200,88,200z"/>
	<path style="fill:#132C47;" d="M208,264h-64c-4.416,0-8-3.584-8-8s3.584-8,8-8h64c4.416,0,8,3.584,8,8S212.416,264,208,264z"/>
	<path style="fill:#132C47;" d="M256,264h-16c-4.416,0-8-3.584-8-8s3.584-8,8-8h16c4.416,0,8,3.584,8,8S260.416,264,256,264z"/>
	<path style="fill:#132C47;" d="M256,304h-64c-4.416,0-8-3.584-8-8s3.584-8,8-8h64c4.416,0,8,3.584,8,8S260.416,304,256,304z"/>
	<path style="fill:#132C47;" d="M160,304h-16c-4.416,0-8-3.584-8-8s3.584-8,8-8h16c4.416,0,8,3.584,8,8S164.416,304,160,304z"/>
	<path style="fill:#132C47;" d="M88,304c-2.112,0-4.152-0.832-5.656-2.344l-16-16c-3.128-3.128-3.128-8.184,0-11.312
		s8.184-3.128,11.312,0l8.752,8.752l18.728-31.216c2.272-3.792,7.184-5.024,10.976-2.744c3.792,2.272,5.016,7.184,2.744,10.976
		l-24,40c-1.264,2.112-3.44,3.52-5.88,3.824C88.656,303.984,88.328,304,88,304z"/>
	<path style="fill:#132C47;" d="M208,360h-64c-4.416,0-8-3.584-8-8s3.584-8,8-8h64c4.416,0,8,3.584,8,8S212.416,360,208,360z"/>
	<path style="fill:#132C47;" d="M256,360h-16c-4.416,0-8-3.584-8-8s3.584-8,8-8h16c4.416,0,8,3.584,8,8S260.416,360,256,360z"/>
	<path style="fill:#132C47;" d="M256,400h-64c-4.416,0-8-3.584-8-8s3.584-8,8-8h64c4.416,0,8,3.584,8,8S260.416,400,256,400z"/>
	<path style="fill:#132C47;" d="M160,400h-16c-4.416,0-8-3.584-8-8s3.584-8,8-8h16c4.416,0,8,3.584,8,8S164.416,400,160,400z"/>
	<path style="fill:#132C47;" d="M88,400c-2.112,0-4.152-0.832-5.656-2.344l-16-16c-3.128-3.128-3.128-8.184,0-11.312
		s8.184-3.128,11.312,0l8.752,8.752l18.728-31.216c2.272-3.792,7.184-5.024,10.976-2.744c3.792,2.272,5.016,7.184,2.744,10.976
		l-24,40c-1.264,2.112-3.44,3.52-5.88,3.824C88.656,399.984,88.328,400,88,400z"/>
</g>
<g>
</g>
<g>
</g>
<g>
</g>
<g>
</g>
<g>
</g>
<g>
</g>
<g>
</g>
<g>
</g>
<g>
</g>
<g>
</g>
<g>
</g>
<g>
</g>
<g>
</g>
<g>
</g>
<g>
</g>
</svg>
