<svg id="Filled_expand" height="512" viewBox="0 0 512 512" width="512" xmlns="http://www.w3.org/2000/svg" data-name="Filled expand"><g><g><path d="m463.213 340.62-138.593 138.593a30 30 0 0 1 -42.426 0l-200.621-200.621a30 30 0 0 1 -8.628-24.3l12.993-125.6a30 30 0 0 1 26.754-26.754l125.6-12.993a30 30 0 0 1 24.3 8.628l200.621 200.621a30 30 0 0 1 0 42.426z" fill="#c85aed"/><circle cx="145.015" cy="161.015" fill="#fffdfa" r="24"/></g><g><circle cx="360" cy="200" fill="#fac850" r="112"/><g><path d="m80.9 255.115 9.967-96.315a72.554 72.554 0 0 0 22.2.632 31.859 31.859 0 1 0 5.234-16.043l-.3-1.153a56.4 56.4 0 0 1 -25.486.581l1.376-13.3a22.1 22.1 0 0 1 19.62-19.62l125.604-12.997a21.918 21.918 0 0 1 17.821 6.327l11.313-11.314a37.843 37.843 0 0 0 -30.78-10.928l-61.469 6.362a72 72 0 1 0 -100.724 66.674l-10.288 99.448a37.845 37.845 0 0 0 10.928 30.78l17.408 17.408 11.313-11.314-17.407-17.407a21.913 21.913 0 0 1 -6.33-17.821zm52.8-105.415a16 16 0 1 1 0 22.628 15.952 15.952 0 0 1 0-22.628zm-85.7-61.7a56 56 0 0 1 112 0q0 .5-.009 1l-48.122 4.978a38.163 38.163 0 0 0 -33.888 33.888l-.952 9.2a56.046 56.046 0 0 1 -29.029-49.066z"/><path d="m318.963 473.557a22.026 22.026 0 0 1 -31.112 0l-170.194-170.194-11.314 11.313 170.194 170.194a38.043 38.043 0 0 0 53.74 0l71.213-71.213-11.313-11.314z"/><path d="m457.557 303.851a22.026 22.026 0 0 1 0 31.112l-55.214 55.214 11.314 11.313 55.213-55.213a38.043 38.043 0 0 0 0-53.74z"/><path d="m125.892 266.343-8.63-8.63a11.95 11.95 0 0 1 -3.451-9.72l1.569-15.17-15.915-1.646-1.565 15.169a27.883 27.883 0 0 0 8.052 22.68l8.631 8.631z"/><path d="m294.921 435.373-9.029-9.03-11.314 11.314 9.03 9.03a28.031 28.031 0 0 0 39.6 0l10.451-10.452-11.314-11.313-10.451 10.451a12.014 12.014 0 0 1 -16.973 0z"/><path d="m360 320a120 120 0 0 0 91.919-197.146l-12.251 10.292a104.072 104.072 0 0 1 24.023 58.854h-15.691v16h15.7a104.167 104.167 0 0 1 -95.7 95.7v-15.7h-16v15.7a104.167 104.167 0 0 1 -95.695-95.7h15.695v-16h-15.695a104.167 104.167 0 0 1 95.695-95.695v15.695h16v-15.691a104.069 104.069 0 0 1 58.854 24.023l10.292-12.251a120 120 0 1 0 -77.146 211.919z"/><path d="m359.135 197.551-50.485-36.061-9.3 13.02 56 40a8 8 0 0 0 10.307-.853l64-64-11.314-11.314z"/></g></g></g></svg>