<svg id="Filled_expand" height="512" viewBox="0 0 512 512" width="512" xmlns="http://www.w3.org/2000/svg" data-name="Filled expand"><g id="_4_copy_2" data-name="4 copy 2"><g><g><path d="m450.972 289.061-15.639-17.061-8.988-9.805c-16.534-28.091-46.619-48.32-82.094-53.108l-22.363-3.887a199.937 199.937 0 0 0 -195.278 78.4l-4.42 6a107.566 107.566 0 0 0 -14.49 100.567 24.963 24.963 0 0 1 -.22 17.833h-25.48a34 34 0 0 0 -34 34v6h334a90 90 0 0 0 90-90v-14.882a80 80 0 0 0 -21.028-54.057z" fill="#e0a23a"/><path d="m488 448h-464v16l16 24h432l16-24z" fill="#ff5a67"/><g><path d="m176 400a48 48 0 0 0 -48 48h96a48 48 0 0 0 -48-48z" fill="#bde660"/><path d="m248 400a48 48 0 0 0 -48 48h96a48 48 0 0 0 -48-48z" fill="#c6e67f"/></g><circle cx="336" cy="200" fill="#ff5a67" r="24"/><path d="m136 352h16v16h-16z"/><g><g><path d="m261.323 234.435c-30.013-17.328-63.258-19.7-86.273-8.535l-48.579-13.9-16 27.713 36.324 35.122c1.839 25.514 20.515 53.119 50.528 70.447 42.089 24.3 90.537 19.185 108.21-11.426s-2.121-75.121-44.21-99.421z" fill="#fcb641"/><path d="m84.9 188a24 24 0 1 0 -44.276-7.088 24 24 0 1 0 28.276 34.8l41.569 24 16-27.713z" fill="#feebcc"/></g><path d="m176 256h16v16h-16z"/><path d="m208 304h16v16h-16z"/><path d="m248 264h16v16h-16z"/><path d="m264 312h16v16h-16z"/></g><path d="m344 288h16v16h-16z"/><path d="m424 312h16v16h-16z"/><g><g><ellipse cx="352" cy="408" fill="#ffd642" rx="24" ry="32"/><ellipse cx="432" cy="408" fill="#ffd642" rx="24" ry="32"/><rect fill="#ffe68c" height="80" rx="30" width="64" x="360" y="368"/></g><path d="m488 440h-36.821c6.993-6.565 11.773-16.623 12.668-28.083a97.546 97.546 0 0 0 16.153-53.917v-14.882a87.792 87.792 0 0 0 -23.13-59.463l-11.8 10.811a71.828 71.828 0 0 1 18.93 48.652v14.882a81.905 81.905 0 0 1 -5.062 28.431c-5.696-11.078-15.638-18.431-26.938-18.431a26.594 26.594 0 0 0 -11.623 2.671 37.928 37.928 0 0 0 -20.377-10.197v-4.474a12.013 12.013 0 0 1 12-12h4v-16h-4a28.032 28.032 0 0 0 -28 28v4.474a37.918 37.918 0 0 0 -20.385 10.2 26.679 26.679 0 0 0 -11.615-2.674c-17.645 0-32 17.944-32 40 0 13.07 5.041 24.7 12.821 32h-29.391a55.973 55.973 0 0 0 -91.414-34.877 56 56 0 0 0 -91.446 34.877h-64.494a26.035 26.035 0 0 1 25.924-24h25.48a8 8 0 0 0 7.44-5.059 33.11 33.11 0 0 0 .3-23.507 99.354 99.354 0 0 1 13.415-93.09l4.42-6c2.018-2.738 4.124-5.442 6.288-8.075 3.933 27.55 24.216 54.757 53.983 71.943 18.744 10.822 39.009 16.46 58.1 16.459a88.344 88.344 0 0 0 22.625-2.854l-4.1-15.466c-20.546 5.44-46.2.956-68.63-12-26.575-15.343-44.846-40.5-46.548-64.094a8 8 0 0 0 -2.419-5.176l-31.833-30.78 4.877-8.448 4.877-8.447 42.574 12.179a7.994 7.994 0 0 0 5.691-.494c21.281-10.323 52.2-7.079 78.781 8.265 38.2 22.056 56.722 61.756 41.283 88.5a41 41 0 0 1 -14.714 14.719l8.218 13.727a56.8 56.8 0 0 0 20.353-20.446c9.86-17.08 10.1-38.15.686-59.329-9.031-20.312-26.016-38.433-47.826-51.025a127.438 127.438 0 0 0 -25.447-11.231 192.1 192.1 0 0 1 66.118-5.155 31.985 31.985 0 0 0 54.36 9.617 106.949 106.949 0 0 1 33.857 17.288l-28.318 28.318 11.314 11.314 28.947-28.947a95.95 95.95 0 0 1 13.3 17.542 7.963 7.963 0 0 0 1 1.348l8.989 9.806 11.794-10.812-8.429-9.2a112.015 112.015 0 0 0 -15.337-20l13.482-13.482 35.638 5.091 2.263-15.839-23.759-3.394 14.142-14.143 35.638 5.092 2.264-15.839-23.759-3.395 22.622-22.618-11.314-11.314-22.627 22.627-3.394-23.758-15.84 2.263 5.092 35.637-14.142 14.142-3.394-23.76-15.84 2.263 5.091 35.637-14.032 14.032a122.867 122.867 0 0 0 -38.2-20.451 32.019 32.019 0 0 0 -22.824-37.013 13.024 13.024 0 0 1 12.424-9.168h3v-16h-3a29.045 29.045 0 0 0 -28.717 24.941 32.094 32.094 0 0 0 -23.883 25.976 208.137 208.137 0 0 0 -98.715 16.14 81.976 81.976 0 0 0 -31.277 6.34l-44.793-12.814-34.661-20.014a32 32 0 1 0 -62.839-8.569 32 32 0 1 0 38.838 50.137l34.667 20.014 22.88 22.128c-2.88 3.422-5.677 6.972-8.332 10.576l-4.42 6a115.32 115.32 0 0 0 -15.569 108.045 17.037 17.037 0 0 1 1.02 7.1h-19.199a42.051 42.051 0 0 0 -41.952 40h-16.048a8 8 0 0 0 -8 8v16a8 8 0 0 0 1.344 4.438l16 24a8 8 0 0 0 6.656 3.562h40v-16h-35.719l-12.281-18.422v-5.578h448v5.578l-12.281 18.422h-371.719v16h376a8 8 0 0 0 6.656-3.562l16-24a8 8 0 0 0 1.344-4.438v-16a8 8 0 0 0 -8-8zm-152-256a16 16 0 1 1 -16 16 16.019 16.019 0 0 1 16-16zm-267.09 23.715a8 8 0 0 0 -6.935 4 16 16 0 1 1 -18.855-23.2 8 8 0 0 0 5.336-9.241 16 16 0 1 1 29.518 4.726 8 8 0 0 0 2.926 10.932l34.642 20-8 13.857-34.641-20a7.952 7.952 0 0 0 -3.991-1.074zm283.09 176.285a10.4 10.4 0 0 1 2.548.317 37.808 37.808 0 0 0 -2.548 13.683v20a37.807 37.807 0 0 0 2.547 13.679 10.284 10.284 0 0 1 -2.547.321c-8.673 0-16-10.991-16-24s7.327-24 16-24zm-176 24a40.06 40.06 0 0 1 25.344 9.058 55.681 55.681 0 0 0 -8.774 22.942h-8.57v-16h-16v16h-31.2a40.071 40.071 0 0 1 39.2-32zm80 32v-16h-16v16h-31.2a40.005 40.005 0 0 1 78.392 0zm134 0a22.025 22.025 0 0 1 -22-22v-20a22.025 22.025 0 0 1 22-22h4a22.025 22.025 0 0 1 22 22v2h16v-2a37.8 37.8 0 0 0 -2.546-13.678 10.309 10.309 0 0 1 2.546-.322c8.673 0 16 10.991 16 24s-7.327 24-16 24a10.309 10.309 0 0 1 -2.546-.322 37.8 37.8 0 0 0 2.546-13.678v-2h-16v2a22.025 22.025 0 0 1 -22 22z"/></g></g><path d="m180 112 9.899 18.101 18.101 9.899-18.101 9.899-9.899 18.101-9.899-18.101-18.101-9.899 18.101-9.899z" fill="#ffe68c"/><path d="m180 174a6 6 0 0 1 -5.264-3.121l-9.056-16.559-16.559-9.056a6 6 0 0 1 0-10.528l16.559-9.056 9.056-16.559a6 6 0 0 1 10.528 0l9.056 16.559 16.559 9.056a6 6 0 0 1 0 10.528l-16.559 9.056-9.056 16.559a6 6 0 0 1 -5.264 3.121zm-15.5-34 8.475 4.635a6 6 0 0 1 2.385 2.386l4.64 8.479 4.636-8.475a6 6 0 0 1 2.385-2.386l8.479-4.639-8.475-4.635a6 6 0 0 1 -2.385-2.386l-4.64-8.479-4.636 8.475a6 6 0 0 1 -2.385 2.386z"/><path d="m288 24 14.142 25.858 25.858 14.142-25.858 14.142-14.142 25.858-14.142-25.858-25.858-14.142 25.858-14.142z" fill="#ffe68c"/><path d="m288 112a8 8 0 0 1 -7.019-4.161l-13.018-23.8-23.8-13.018a8 8 0 0 1 0-14.038l23.8-13.018 13.018-23.8a8 8 0 0 1 14.038 0l13.018 23.8 23.8 13.018a8 8 0 0 1 0 14.038l-23.8 13.018-13.018 23.8a8 8 0 0 1 -7.019 4.161zm-23.328-48 13.028 7.123a8 8 0 0 1 3.18 3.18l7.12 13.025 7.124-13.028a8 8 0 0 1 3.18-3.18l13.024-7.12-13.028-7.123a8 8 0 0 1 -3.18-3.18l-7.12-13.025-7.124 13.028a8 8 0 0 1 -3.18 3.18z"/></g></g></svg>